<!--?xml version="1.0" encoding="iso-8859-1"?-->
<!-- Generator: Adobe Illustrator 24.0.2, SVG Export Plug-In . SVG Version: 6.00 Build 0)  -->
<svg version="1.1" id="_x34_" xmlns="http://www.w3.org/2000/svg" xmlns:xlink="http://www.w3.org/1999/xlink" x="0px" y="0px" viewBox="0 0 402.2 512" style="opacity: 1; width: 256px;" xml:space="preserve">
<style type="text/css">
	.st0{fill:#272020;}
	.st1{opacity:0.5;fill:#040000;}
	.st2{opacity:5.000000e-02;fill:#FFFFFF;}
	.st3{fill:#040000;}
	.st4{opacity:0.5;fill:#757878;}
</style>
<g>
	<path class="st0" d="M401.9,284c-0.3-0.6-1.2-0.9-2.6-0.9c-2.7,0-6.9,1.2-11.8,3.4l-1.5,0.7l-1.3-1c-0.4-0.3-0.9-0.4-1.2-0.4
		c-1.4,0-3,1-3,2.2l0,1.5l-3.7,1.2l-0.9-0.9c-0.4-0.4-1-0.5-1.4-0.5c-1.4,0-2.8,0.9-3,1.9l-0.2,1.3l-2.7,0.9c-10.2,0.6-33.1,6-34,7
		l-7.4-2.5c0,0-17.7-31.4-33.3-46.6c-8.3-8.1-17-14.8-22.4-20.5c-2.3-0.2-4.5-0.3-6.8-0.3c-6.1,0-12.2,0.8-18.1,2.4l0.4-1.9
		c0,0-2.7-1.3-4.4-2.1c0.6-2.6,0.9-5.2,1.1-7.8l12.2-4.7l0.6-2.8l0.6-0.3c0.1-0.1,14.7-8.1,19.8-15.5c4.9-7.2,16.9-47.1,18.1-64.7
		l-0.4-2.3l2.3,0.5c0.9,0.2,2.1,0.4,3.4,0.6c9.5,1.3,25.7,1.5,30.2-2.1l0.7-0.6l0.8,0.4c1.5,0.6,3.3,1.1,5.5,1.4
		c5.1,0.7,9.7-1.3,12.6-1.7l-1.5-3.6l5.4-1.8l1.3,1.4c0.3,0.3,0.8,0.5,1.4,0.5c1,0,2.1-0.5,2.7-1.2c0.5-0.6,0.4-1.1,0.3-1.4
		l-0.6-2.7l2.7-0.5c1.1-0.2,2-0.6,2.9-1c1-0.4,2-0.9,3.1-0.9c2.7,0,4,1.9,4.9,5.7c2.6-6.1,2-8.2,1.6-8.8c-0.3-0.6-1.2-0.9-2.6-0.9
		c-2.7,0-6.9,1.2-11.8,3.4l-1.5,0.7l-1.3-1c-0.4-0.3-0.9-0.4-1.2-0.4c-1.4,0-3,1-3,2.2l0,1l-5.6,1.8l-1.3-3.8
		c-3.2,1.1-11.5,2.1-16.4,5.6l-0.8,0.6l-0.9-0.5c-1-0.6-2.4-1-4.1-1.3c-7-0.9-17,0.4-33,6.1c-11.9,14.7-22.2,62.6-22.3,63.1
		l-0.1,0.5l-14.3,15.2l-3.2-4.6l-8.8-1.1c-1-4.7-2.6-9.1-4.5-13c-0.9-1.8-1.9-3.6-3-5.2c-2.7-4.2-5.9-7.8-9.5-10.7
		c3.8,0.1,7.8,0.2,11.8,0c8.8-0.4,16.2-8.4,17-18.6c1-12.7-1.5-27.5-4-38.3c-2.2-9.6-6.6-18.4-12.6-25.5l-7.7-9.2
		c-1-1.2-2.2-2.1-3.3-3.2l38.2-9l0.7-0.2l0.2-0.7c1.6-5.4,3.3-10.9,5.1-16.3c1.7-5.4,3.5-10.8,5.4-16.1l2.8-8.1
		c0.9-2.7,1.8-5.4,3.2-7.9c2.7-5.1,5.2-10.3,4.5-16.4c-0.1-0.8-0.5-1.6-1.2-2.1c-1.4-1.1-3.4-1-4.6,0.4c-3.9,4.8-4.7,10.5-5.2,16.2
		c-0.2,2.9-0.9,5.7-1.6,8.4l-2,8.3c-1.3,5.5-2.8,11-4.3,16.5c-1.4,5.3-2.9,10.5-4.4,15.7l-39.1,9.2c-13.7-11.2-32-11.5-45.8-0.6
		l-36.6-8.6c-1.5-5.2-3-10.4-4.4-15.7c-1.5-5.5-2.9-11-4.2-16.5l-2.1-8.3c-0.7-2.8-1.4-5.5-1.6-8.4c-0.5-5.8-1.3-11.5-5.2-16.2
		c-0.5-0.6-1.3-1.1-2.1-1.2c-1.8-0.2-3.4,1.1-3.6,2.9c-0.7,6.1,1.8,11.3,4.5,16.4c1.4,2.6,2.3,5.2,3.2,7.9l2.8,8.1
		c1.9,5.4,3.7,10.7,5.4,16.1c1.8,5.4,3.5,10.8,5.1,16.3l0.2,0.7l0.7,0.2l35.7,8.4c-1.3,1.2-2.7,2.3-3.9,3.8l-7.7,9.2
		c-6,7.1-10.4,15.9-12.6,25.5c-2.5,10.9-5,25.6-4,38.3c0.8,10.2,8.1,18.2,17,18.6c4,0.2,8,0.2,11.9,0c-3.6,2.9-6.8,6.5-9.5,10.7
		c-1,1.6-2.1,3.4-3,5.2c-1.9,3.9-3.4,8.3-4.5,13l-8.9,1.1l-3.2,4.6L133.6,192l-0.1-0.5c-0.1-0.5-10.4-48.4-22.3-63.1
		c-16-5.6-26-7-33-6.1c-1.7,0.2-3.1,0.7-4.1,1.3l-0.9,0.5l-0.8-0.6c-4.8-3.5-13.2-4.5-16.4-5.6l-1.3,3.8l-5.6-1.8l0-1
		c0-1.2-1.7-2.2-3-2.2c-0.3,0-0.8,0.1-1.2,0.4l-1.3,1l-1.5-0.7c-4.9-2.2-9.1-3.4-11.8-3.4c-1.4,0-2.3,0.3-2.6,0.9
		c-0.3,0.6-1,2.7,1.6,8.8c0.9-3.7,2.2-5.7,4.9-5.7c1.1,0,2.1,0.4,3.1,0.9c0.9,0.4,1.8,0.8,2.9,1l2.7,0.5l-0.6,2.7
		c-0.1,0.3-0.1,0.8,0.3,1.4c0.6,0.7,1.7,1.2,2.7,1.2c0.6,0,1.1-0.2,1.4-0.5l1.3-1.4l5.4,1.8l-1.5,3.6c2.8,0.4,7.5,2.4,12.6,1.7
		c2.1-0.3,4-0.8,5.5-1.4l0.8-0.4l0.7,0.6c4.5,3.6,20.7,3.4,30.2,2.1c1.3-0.2,2.5-0.4,3.4-0.6l2.3-0.5l-0.4,2.3
		c1.2,17.6,13.2,57.5,18.1,64.7c5.1,7.3,19.6,15.4,19.8,15.5l0.6,0.3l0.6,2.8l12.2,4.7c0.2,2.6,0.5,5.2,1.1,7.8
		c-1.7,0.7-4.4,2.1-4.4,2.1l0.4,1.9c-5.9-1.6-12-2.4-18.1-2.4c-2.3,0-4.5,0.1-6.8,0.3c-5.5,5.6-14.1,12.3-22.4,20.5
		c-15.6,15.2-33.3,46.6-33.3,46.6l-7.4,2.5c-1-1-23.8-6.4-34-7l-2.7-0.9l-0.2-1.3c-0.2-1-1.6-1.9-3-1.9c-0.4,0-1,0.1-1.4,0.5
		l-0.9,0.9l-3.7-1.2l0-1.5c0-1.2-1.7-2.2-3-2.2c-0.3,0-0.8,0.1-1.2,0.4l-1.3,1l-1.5-0.7c-4.9-2.2-9.1-3.4-11.8-3.4
		c-1.4,0-2.3,0.3-2.6,0.9c-0.3,0.6-1,2.7,1.6,8.8c0.9-3.7,2.2-5.7,4.9-5.7c1.1,0,2.1,0.4,3.1,0.9c0.9,0.4,1.8,0.8,2.9,1l2.7,0.5
		l-0.6,2.7c-0.1,0.3-0.1,0.8,0.3,1.4c0.6,0.7,1.7,1.2,2.7,1.2c0.6,0,1.1-0.2,1.4-0.5l1.1-1.1l3.4,0.9l0,2c0,1.3,1.6,2.2,3.1,2.2
		c1.4,0,1.7-0.8,1.8-1.1l0.6-1.7l5,1.3c11.9,6.4,28.5,11.1,31.5,11.9l8.3-0.8c30.9-29.2,42.9-46.9,49.4-56.5
		c5.1-7.5,7.7-11.3,13.6-11.3c3.4,0,7.7,1.3,14.8,3.5c1.8,0.6,3.8,1.2,6,1.8l0.5,2.6l9.8,2.6c1.4,2.4,2.8,4.7,4.4,6.8
		c-6.2,8.1-10.4,19.1-11.4,32.5l-4.6,4.6c-1.8,0.2-3.8,0.5-6.4,1c-11.4,1.9-22.3,6.3-31.8,12.8c-2.2,8.4-5.7,18-9.3,28.2
		c-8.1,22.7-10.5,43.9-16.8,70.2l0,2.5l-2.4,0.7c-0.2,0.1-20.1,6.3-30.5,11.2l-4.8,0.9L54,421c-0.3-0.4-0.9-0.6-1.6-0.6
		c-1.3,0-2.5,0.7-2.7,1.4l-0.3,1l-5.2,0.9l-0.6-1.1c-0.3-0.6-1.2-0.8-1.9-0.8c-1.2,0-2.3,0.5-2.6,1.3l-0.7,1.9l-2,0.2
		c-10.3,0.9-14.6,3.3-14.9,4.8c0,0.1-0.4,2.2,5.3,6.9c-0.6-2.7-0.5-4.4,0.4-5.8c1.3-2.2,3.6-2.4,5.4-2.6c1-0.1,2.1-0.2,3.2-0.6
		l3.3-1.1l0.9,3.3c0.3,1,1.5,1.1,2,1.1c1.1,0,2.4-0.5,2.6-1.4l0.6-2.2l4.1-0.9l1.3,2.3c0.4,0.7,1.3,0.8,1.8,0.8c1,0,2-0.4,2.6-1
		c0.3-0.3,0.4-0.7,0.3-1.1l-0.3-2.1l8.4-1.8c14.3-0.7,31-4.6,34.2-5.4l7.5-5.2c14-44.8,16.1-68.5,17.1-81.2
		c1.6-18.1,3.1-18.8,23.5-23.2c3.9-0.8,8.5-1.8,14.1-3.1l2.2,1.1c0.6,3.1,1.4,6.2,2.3,9.2c1.7,5.2,4,10.2,6.6,14.9
		c-23.2,12.8-39.3,40.6-39.3,78.1c0,31.7,18.5,62.9,37.4,82.5c0,0-0.1,0-0.1,0c0.4,0.4,0.8,0.8,1.2,1.2c0.4,0.4,0.8,0.8,1.1,1.1
		c1.5,1.5,3,2.9,4.5,4.2c0.3,0.3,0.7,0.6,1,0.9c3.6,3.1,7.1,5.8,10.4,7.9c0.3,0.2,0.6,0.3,0.9,0.5c1.3,0.8,2.5,1.5,3.7,2
		c0.5,0.2,0.9,0.4,1.3,0.6c1.1,0.5,2.1,0.8,3,1.1c0.4,0.1,0.8,0.3,1.2,0.4c1.3,0.3,2.5,0.5,3.6,0.5c0,0,0,0,0,0c0,0,0,0,0,0h0
		c7.1,0,18.4-7,29.8-18.4c0.2-0.2,0.3-0.3,0.5-0.5c0.2-0.2,0.4-0.4,0.6-0.7c9.5-9.7,19-22.3,26.2-36.6c7.3-14.5,12.2-30.7,12.2-47
		c0,0,0,0,0,0v0c0-4.4-0.3-8.6-0.7-12.7c-0.1-1-0.2-2-0.4-3c-0.5-4-1.2-7.9-2.1-11.6c0-0.2-0.1-0.4-0.2-0.6c-0.9-3.6-2-6.9-3.2-10.2
		c-0.3-0.9-0.6-1.7-1-2.6c-1.3-3.3-2.8-6.6-4.5-9.6c0,0,0-0.1-0.1-0.1c0,0,0,0,0,0c-6.8-12.3-16.2-21.7-27.2-27.7
		c2.6-4.7,4.9-9.7,6.6-14.9c1-3,1.8-6.1,2.3-9.3l2.2-1.1c5.5,1.3,10.2,2.3,14.1,3.1c20.3,4.3,21.9,5.1,23.5,23.2
		c1.1,12.8,3.1,36.4,17.1,81.2l7.5,5.2c3.2,0.8,19.9,4.8,34.2,5.4l8.4,1.8l-0.3,2.1c-0.1,0.5,0,0.8,0.3,1.1c0.5,0.6,1.6,1,2.6,1
		c0.5,0,1.4-0.1,1.8-0.8l1.3-2.3l4.1,0.9l0.6,2.2c0.2,0.9,1.5,1.4,2.6,1.4c0.5,0,1.8-0.1,2-1.1l0.9-3.3l3.3,1.1
		c1.1,0.4,2.2,0.5,3.2,0.6c1.8,0.2,4.1,0.4,5.4,2.6c0.9,1.4,1,3.1,0.4,5.8c5.7-4.7,5.3-6.8,5.3-6.9c-0.3-1.4-4.6-3.9-14.9-4.8
		l-2-0.2l-0.7-1.9c-0.3-0.7-1.4-1.3-2.6-1.3c-0.7,0-1.5,0.2-1.9,0.8l-0.6,1.1l-5.2-0.9l-0.3-1c-0.2-0.8-1.4-1.4-2.7-1.4
		c-0.7,0-1.3,0.2-1.6,0.6l-0.8,0.9l-4.8-0.9c-10.5-4.9-30.3-11.1-30.5-11.2l-2.4-0.7l0-2.5c-6.3-26.3-8.7-47.5-16.8-70.2
		c-3.6-10.2-7.1-19.8-9.3-28.2c-9.4-6.5-20.4-11-31.8-12.8c-2.6-0.4-4.6-0.7-6.4-1L241,290c-1-13.4-5.1-24.4-11.4-32.5
		c1.5-2.2,3-4.5,4.4-6.8l9.8-2.6l0.5-2.6c2.2-0.7,4.2-1.3,6-1.8c7.1-2.2,11.4-3.5,14.8-3.5c5.9,0,8.5,3.8,13.6,11.3
		c6.5,9.6,18.6,27.3,49.4,56.5l8.3,0.8c2.9-0.8,19.6-5.5,31.5-11.9l5-1.3l0.6,1.7c0.1,0.3,0.4,1.1,1.8,1.1c1.4,0,3.1-0.9,3.1-2.2
		l0-2l3.4-0.9l1.1,1.1c0.3,0.3,0.8,0.5,1.4,0.5c1,0,2.1-0.5,2.7-1.2c0.5-0.6,0.4-1.1,0.3-1.4l-0.6-2.7l2.7-0.5c1.1-0.2,2-0.6,2.9-1
		c1-0.4,2-0.9,3.1-0.9c2.7,0,4,1.9,4.9,5.7C402.9,286.7,402.2,284.6,401.9,284z" style="fill: rgb(255, 255, 255);"></path>
	<g>
		<path class="st1" d="M201.1,181.4c5.3,0.6,17.1,1.8,29.8,1.8h0.1c1.3,0,2.6,0,3.8-0.1c-2.6-4.2-5.8-7.8-9.4-10.6
			c-13.3-0.6-24.4-2.6-24.4-2.6s-11.2,2-24.4,2.6c-3.5,2.9-6.7,6.5-9.4,10.6c1.3,0.1,2.6,0.1,3.8,0.1
			C183.9,183.3,195.8,182.1,201.1,181.4z" style="fill: rgb(238, 225, 225);"></path>
		<path class="st1" d="M201.1,323c10.7,0,21,2.6,30.1,7.7c2.6-4.6,5-9.6,6.6-14.8c-11-5.8-23.4-8.9-36.7-8.9
			c-13.4,0-25.8,3.1-36.7,8.9c1.7,5.2,4,10.2,6.6,14.8C180.1,325.7,190.3,323,201.1,323z" style="fill: rgb(238, 225, 225);"></path>
		<path class="st1" d="M258.4,358.5c4.1,16.1,3.6,35-2.8,55.4c-13.4,42.5-61.4,73.1-86.5,77.6c12.2,12.7,24.5,20.6,32.1,20.6
			c19.1,0,69.3-51,69.3-103.1C270.4,389.1,266,372.1,258.4,358.5z" style="fill: rgb(238, 225, 225);"></path>
	</g>
	<g>
		<path class="st2" d="M182.8,187.4v122.2c-3.1,0.7-6.1,1.7-9,2.8c-4.1-7.4-7-16-7-24.6c0-11.3,3-21.3,8.6-28.2l4.3-5.4l-4.1-5.6
			c-7.4-10.1-11.4-20.9-11.4-30.3c0-13.2,4.3-24.1,11.5-30.6C178.2,187.5,180.6,187.4,182.8,187.4z" style="fill: rgb(255, 255, 255);"></path>
		<path class="st2" d="M197.3,154.7c0.2,2-1.8,3.8-4.4,4.1l-1.5,0.2c-2.4,0.3-4.8,0.5-7.3,0.8c-2.5,0.2-5.1,0.4-7.7,0.6
			c-4.9,0.3-9.4-3.2-10.4-8c-2.3-11.4-0.2-25.6,1.9-35.5c1.8-8.2,6-15.9,12.3-22.3l9.7-10.1c0,0,0.1-0.1,0.1-0.1
			c3-3.1,9.4-1.4,8.8,2.3C195.5,107.4,194.8,130.5,197.3,154.7z" style="fill: rgb(255, 255, 255);"></path>
		<path class="st2" d="M200.9,342.9c-29.8,0.5-50.9,28.6-50.3,66.8c0,1.5,0.1,3,0.2,4.5c1.4,15.9,21,22.7,32,11.2l45.5-47.4
			c8.3-8.6,6.5-22.9-3.9-28.9C217.5,345,209.5,342.8,200.9,342.9z" style="fill: rgb(255, 255, 255);"></path>
	</g>
	<g>
		<path class="st3" d="M239.5,102.5L239.5,102.5c-0.5-2.8-2.2-5-4.2-6c-1.1-0.6-2.3-0.8-3.5-0.6c-3.6,0.6-6,4.7-5.3,9.1
			c0.7,4.5,4.2,7.7,7.8,7.1c3.6-0.6,6-4.7,5.3-9.1C239.6,102.8,239.6,102.7,239.5,102.5z" style="fill: rgb(239, 227, 227);"></path>
		<path class="st3" d="M170.4,95.9c-1.2-0.2-2.4,0.1-3.6,0.6c-2,1.1-3.6,3.3-4.2,6c0,0,0,0,0,0c-0.1,0.2-0.1,0.3-0.1,0.4
			c-0.7,4.5,1.7,8.6,5.3,9.1c3.6,0.6,7.1-2.6,7.8-7.1C176.4,100.5,174,96.4,170.4,95.9z" style="fill: rgb(239, 227, 227);"></path>
	</g>
	<g>
		<path class="st4" d="M236.9,100.5c0,1.9-1.5,3.5-3.4,3.5c-1.9,0-3.4-1.6-3.4-3.5s1.5-3.5,3.4-3.5C235.4,97,236.9,98.5,236.9,100.5
			z"></path>
		<ellipse class="st4" cx="168.7" cy="100.5" rx="3.4" ry="3.5"></ellipse>
	</g>
</g>
</svg>
