<!--?xml version="1.0" encoding="utf-8"?-->
<!-- Generator: Adobe Illustrator 18.1.1, SVG Export Plug-In . SVG Version: 6.00 Build 0)  -->

<svg version="1.1" id="_x32_" xmlns="http://www.w3.org/2000/svg" xmlns:xlink="http://www.w3.org/1999/xlink" x="0px" y="0px" viewBox="0 0 512 512" style="width: 256px; height: 256px; opacity: 1;" xml:space="preserve">
<style type="text/css">
	.st0{fill:#4B4B4B;}
</style>
<g>
	<path class="st0" d="M506.839,132.093c-11.464-7.848-38.008,10.247-42.223,15.68c-4.224,5.432-45.239,54.896-47.664,53.687
		c-1.716-0.858-24.691-4.74-41.126-5.847c3.108-10.062,4.086-18.474,4.086-18.474s6.77-3.643,11.455-12.497
		c4.686-8.854,0.517-26.562-1.042-21.868c-1.558,4.676-16.656,13.53-16.656,13.53s-3.782-3.772-8.984-8.984
		c-5.211-5.202-8.983-8.984-8.983-8.984s8.844-15.098,13.53-16.656c4.685-1.568-13.023-5.737-21.868-1.043
		c-8.854,4.695-12.497,11.455-12.497,11.455s-8.421,0.978-18.474,4.086c-1.107-16.435-4.999-39.419-5.856-41.134
		c-1.2-2.408,48.264-43.432,53.696-47.647c5.424-4.233,23.52-30.778,15.689-42.232c-7.859-11.465-16.897-1.209-17.505,5.432
		c-0.6,6.631-4.824,18.095-6.032,30.159c0,0-1.2,3.625-4.815,7.23c-2.721,2.721-27.761,26.545-44.722,38.258
		c-5.165,3.56-5.654,9.398-5.349,10.607c0.829,3.356,4.879,26.257,7.064,42.13c-5.672,2.315-11.326,5.332-15.882,9.26
		c-15.099,13.014-22.394,34.881-10.93,46.346c11.446,11.446,17.838,17.838,17.838,17.838s6.373,6.373,17.828,17.837
		c11.455,11.447,33.332,4.16,46.355-10.938c3.929-4.566,6.946-10.219,9.26-15.891c15.872,2.195,38.755,6.235,42.112,7.074
		c1.208,0.305,7.037-0.194,10.606-5.358c11.713-16.961,35.536-42.002,38.257-44.714c3.616-3.616,7.231-4.824,7.231-4.824
		c12.073-1.208,23.537-5.423,30.168-6.031C508.048,148.981,518.294,139.923,506.839,132.093z" style="fill: rgb(255, 255, 255);"></path>
	<path class="st0" d="M242.515,202.733c3.634-2.214,7.508-4.427,11.364-6.272l-28.602-57.468l34.993-58.751
		c1.014-1.725,1.19-3.772,0.48-5.636l-14.581-38.165c-1.273-3.358-5.018-5.018-8.375-3.745c-3.32,1.264-5.017,5.017-3.735,8.347
		l13.466,35.241l-35.204,59.12c-1.107,1.9-1.19,4.233-0.222,6.207L242.515,202.733z" style="fill: rgb(255, 255, 255);"></path>
	<path class="st0" d="M74.96,174.105l28.472,17.357c1.632,0.996,3.606,1.227,5.396,0.646l65.668-21.664l50.782,50.791
		c1.919-5.967,3.81-9.491,6.558-11.788l-51.013-51.012c-1.724-1.725-4.298-2.324-6.604-1.56l-66.6,21.979l-25.935-15.808
		c-3.043-1.873-7.009-0.895-8.863,2.166C70.938,168.257,71.898,172.251,74.96,174.105z" style="fill: rgb(255, 255, 255);"></path>
	<path class="st0" d="M217.466,253.404c0.646-2.766,1.31-5.774,1.891-8.356c0.331-1.531,0.691-3.016,0.996-4.408l-117.392-12.202
		c-2.463-0.249-4.888,0.959-6.189,3.052l-45.544,73.877L4.736,318.233c-3.431,0.941-5.451,4.501-4.501,7.96
		c0.94,3.44,4.519,5.478,7.969,4.5l48.947-13.54c1.586-0.424,2.932-1.438,3.791-2.831l44.722-72.558L217.466,253.404z" style="fill: rgb(255, 255, 255);"></path>
	<path class="st0" d="M475.564,265.836l-38.156-14.572c-1.881-0.72-3.92-0.544-5.654,0.461l-58.732,35.01l-57.469-28.61
		c-1.862,3.855-4.067,7.73-6.28,11.354l61.122,30.418c1.982,0.977,4.306,0.894,6.206-0.213l59.12-35.204l35.241,13.456
		c3.33,1.291,7.083-0.416,8.347-3.726C480.59,270.854,478.922,267.109,475.564,265.836z" style="fill: rgb(255, 255, 255);"></path>
	<path class="st0" d="M302.549,280.169c-2.297,2.748-5.811,4.648-11.769,6.566l50.782,50.783l-21.664,65.658
		c-0.581,1.79-0.36,3.764,0.646,5.396l17.348,28.472c1.862,3.052,5.856,4.012,8.9,2.148c3.062-1.863,4.03-5.829,2.158-8.882
		l-15.809-25.926l21.979-66.6c0.775-2.315,0.175-4.879-1.558-6.613L302.549,280.169z" style="fill: rgb(255, 255, 255);"></path>
	<path class="st0" d="M266.948,292.639c-2.583,0.59-5.58,1.254-8.356,1.9l11.649,111.802l-72.549,44.722
		c-1.402,0.858-2.425,2.204-2.84,3.791l-13.54,48.956c-0.987,3.431,1.061,7.019,4.5,7.95c3.458,0.96,7.028-1.06,7.96-4.501
		l12.866-46.484l73.868-45.544c2.103-1.31,3.311-3.726,3.071-6.189l-12.221-117.391
		C269.973,291.957,268.488,292.317,266.948,292.639z" style="fill: rgb(255, 255, 255);"></path>
	<path class="st0" d="M231.494,346.391c-3.126-20.825-8.854-38.016-5.727-41.144c3.118-3.127,15.098-15.098,18.225-18.225
		c3.126-3.126,47.388-9.888,49.998-14.581c2.592-4.686,19.258-28.638,13.531-34.366c-5.728-5.736-16.796-16.795-16.796-16.795
		s-11.067-11.068-16.795-16.795c-5.727-5.728-29.68,10.929-34.365,13.53c-4.686,2.61-11.455,46.872-14.581,49.998
		c-3.127,3.118-15.108,15.098-18.225,18.225c-3.126,3.118-20.309-2.601-41.144-5.727c-20.826-3.127-65.078,34.318-74.993,81.246
		c-7.802,36.966,3.256,51.16,5.866,53.771c2.601,2.6,16.795,13.658,53.761,5.847C197.166,411.469,234.621,367.217,231.494,346.391z" style="fill: rgb(255, 255, 255);"></path>
</g>
</svg>
